<?xml version="1.0" standalone="no"?><!DOCTYPE svg PUBLIC "-//W3C//DTD SVG 1.1//EN" "http://www.w3.org/Graphics/SVG/1.1/DTD/svg11.dtd"><svg t="1662788756139" class="icon" viewBox="0 0 1024 1024" version="1.1" xmlns="http://www.w3.org/2000/svg" p-id="3444" xmlns:xlink="http://www.w3.org/1999/xlink" width="200" height="200"><path d="M874.666667 170.688a64 64 0 0 1 64 64v554.666667a64 64 0 0 1-64 64H149.333333a64 64 0 0 1-64-64v-554.666667a64 64 0 0 1 64-64h725.333334z m0 64H149.333333v554.666667h725.333334v-554.666667z" fill="#6F7B91" p-id="3445"></path><path d="M928 367.786667v64h-832v-64zM928 585.109333v64h-832v-64z" fill="#6F7B91" p-id="3446"></path><path d="M417.408 192v640h-64V192zM684.074667 192v640h-64V192z" fill="#6F7B91" p-id="3447"></path></svg>