<?xml version="1.0" standalone="no"?><!DOCTYPE svg PUBLIC "-//W3C//DTD SVG 1.1//EN" "http://www.w3.org/Graphics/SVG/1.1/DTD/svg11.dtd"><svg t="1662788693580" class="icon" viewBox="0 0 1024 1024" version="1.1" xmlns="http://www.w3.org/2000/svg" p-id="3171" xmlns:xlink="http://www.w3.org/1999/xlink" width="200" height="200"><path d="M512 341.333333a170.666667 170.666667 0 1 1 0 341.333334 170.666667 170.666667 0 0 1 0-341.333334z m0 64a106.666667 106.666667 0 1 0 0 213.333334 106.666667 106.666667 0 0 0 0-213.333334z" fill="#6F7B91" p-id="3172"></path><path d="M593.365333 85.333333a50.986667 50.986667 0 0 1 50.389334 40.042667l0.64 3.392 12.928 87.616c12.181333 5.482667 24.362667 11.946667 36.16 19.370667l8.746666 5.76 86.058667-33.514667c6.08-2.282667 11.413333-3.050667 17.493333-3.050667 17.066667 0 33.450667 8.64 42.986667 22.784l1.941333 3.114667 80.704 136.384c12.288 21.717333 8.106667 46.869333-9.322666 62.4l-2.858667 2.368-72.32 54.848c0.746667 7.637333 1.514667 16 1.514667 25.152 0 6.848-0.426667 13.290667-0.96 19.285333l-0.554667 5.866667 72.32 54.848a49.472 49.472 0 0 1 14.634667 60.650667l-1.706667 3.349333-81.450667 137.898667c-8.384 16-25.877333 25.152-44.16 25.152-4.864 0-9.749333-0.490667-14.613333-1.856l-3.648-1.194667-86.037333-33.514667c-12.181333 7.914667-23.893333 14.869333-35.861334 20.842667l-9.066666 4.288L644.373333 896c-3.626667 23.210667-23.125333 40.917333-47.338666 42.538667l-3.669334 0.128h-162.922666c-24.725333 0-45.952-17.365333-50.496-40.128l-0.512-3.306667-12.949334-87.616a295.082667 295.082667 0 0 1-36.16-19.370667l-8.746666-5.76-86.058667 33.514667a47.168 47.168 0 0 1-17.493333 3.050667c-17.066667 0-33.450667-8.64-42.986667-22.784l-1.941333-3.114667-80.704-136.384c-12.309333-21.717333-8.106667-46.869333 9.322666-62.4l2.858667-2.368 72.32-54.848c-1.514667-9.152-1.514667-17.536-1.514667-25.152 0-5.717333 0.426667-11.861333 0.96-18.432l0.554667-6.72-72.32-54.848a49.770667 49.770667 0 0 1-13.994667-61.504l1.813334-3.264 81.450666-137.130667c8.384-16 25.898667-25.152 44.16-25.152 4.885333 0 9.749333 0.490667 14.634667 1.856l3.648 1.194667 86.037333 33.514667c12.16-7.914667 23.872-14.869333 35.84-20.842667l9.066667-4.288L379.434667 128c3.626667-23.210667 23.125333-40.917333 47.338666-42.538667L430.442667 85.333333h162.922666z m-10.645333 64h-141.632l-15.274667 110.869334-32.298666 14.528c-9.408 4.245333-19.114667 9.578667-30.485334 16.725333l-5.802666 3.712-27.52 17.92-106.154667-41.386667-69.696 117.354667 89.749333 68.053333-4.053333 49.301334-0.149333 3.605333 0.042666 9.514667 0.149334 3.349333 0.256 2.581333 6.528 39.317334-92.544 70.165333 69.333333 117.162667 106.666667-41.536 27.882666 19.093333c8.704 5.973333 18.005333 11.370667 27.712 16.149333l7.338667 3.456 31.914667 14.357334 16.384 111.04h141.738666l16.277334-111.018667 31.957333-14.378667c9.408-4.245333 19.136-9.578667 30.506667-16.725333l33.322666-21.632 106.112 41.344 69.205334-117.141333-90.538667-68.650667 4.266667-43.264 0.384-5.973333a117.973333 117.973333 0 0 0 0.106666-2.666667l0.021334-2.56c0-1.706667-0.042667-3.413333-0.128-5.226667l-0.384-5.973333-0.704-7.573333-3.562667-35.690667 90.304-68.501333-69.354667-117.162667-106.624 41.557333-27.882666-19.093333a225.109333 225.109333 0 0 0-27.712-16.149333l-7.338667-3.456-31.914667-14.357334L582.72 149.333333z" fill="#6F7B91" p-id="3173"></path></svg>