<?xml version="1.0" standalone="no"?><!DOCTYPE svg PUBLIC "-//W3C//DTD SVG 1.1//EN" "http://www.w3.org/Graphics/SVG/1.1/DTD/svg11.dtd"><svg t="1662788726309" class="icon" viewBox="0 0 1024 1024" version="1.1" xmlns="http://www.w3.org/2000/svg" p-id="3307" xmlns:xlink="http://www.w3.org/1999/xlink" width="200" height="200"><path d="M694.848 437.333333c57.792 0 102.848 50.88 105.066667 112.576L800 554.666667v157.418666h-64V554.666667c0-29.141333-17.941333-51.328-38.336-53.205334l-2.816-0.128H329.173333c-20.608 0-39.445333 20.928-41.045333 49.408L288 554.666667v157.418666h-64V554.666667c0-62.208 43.626667-114.645333 100.714667-117.226667l4.437333-0.106667H694.826667z" fill="#6F7B91" p-id="3308"></path><path d="M544 299.605333V480h-64v-180.394667z" fill="#6F7B91" p-id="3309"></path><path d="M640 53.333333H384A74.666667 74.666667 0 0 0 309.333333 128v128a74.666667 74.666667 0 0 0 74.666667 74.666667h256a74.666667 74.666667 0 0 0 74.666667-74.666667V128A74.666667 74.666667 0 0 0 640 53.333333z m-256 64h256a10.666667 10.666667 0 0 1 10.666667 10.666667v128a10.666667 10.666667 0 0 1-10.666667 10.666667H384a10.666667 10.666667 0 0 1-10.666667-10.666667V128a10.666667 10.666667 0 0 1 10.666667-10.666667zM384 650.666667H128A74.666667 74.666667 0 0 0 53.333333 725.333333v128A74.666667 74.666667 0 0 0 128 928h256a74.666667 74.666667 0 0 0 74.666667-74.666667v-128a74.666667 74.666667 0 0 0-74.666667-74.666666z m-256 64h256a10.666667 10.666667 0 0 1 10.666667 10.666666v128a10.666667 10.666667 0 0 1-10.666667 10.666667H128a10.666667 10.666667 0 0 1-10.666667-10.666667v-128a10.666667 10.666667 0 0 1 10.666667-10.666666zM896 650.666667H640a74.666667 74.666667 0 0 0-74.666667 74.666666v128a74.666667 74.666667 0 0 0 74.666667 74.666667h256a74.666667 74.666667 0 0 0 74.666667-74.666667v-128a74.666667 74.666667 0 0 0-74.666667-74.666666z m-256 64h256a10.666667 10.666667 0 0 1 10.666667 10.666666v128a10.666667 10.666667 0 0 1-10.666667 10.666667H640a10.666667 10.666667 0 0 1-10.666667-10.666667v-128a10.666667 10.666667 0 0 1 10.666667-10.666666z" fill="#6F7B91" p-id="3310"></path></svg>