<?xml version="1.0" standalone="no"?><!DOCTYPE svg PUBLIC "-//W3C//DTD SVG 1.1//EN" "http://www.w3.org/Graphics/SVG/1.1/DTD/svg11.dtd"><svg t="1662788595738" class="icon" viewBox="0 0 1024 1024" version="1.1" xmlns="http://www.w3.org/2000/svg" p-id="2897" xmlns:xlink="http://www.w3.org/1999/xlink" width="200" height="200"><path d="M522.666667 44.032c100.629333 0 185.6 73.813333 200.405333 172.373333a32 32 0 0 1-63.274667 9.493334 138.709333 138.709333 0 0 0-274.176-0.469334 32 32 0 0 1-63.253333-9.728A202.709333 202.709333 0 0 1 522.666667 44.032z" fill="#6F7B91" p-id="2898"></path><path d="M853.333333 213.333333l-40.64 685.184A42.666667 42.666667 0 0 1 770.090667 938.666667H254.293333a42.666667 42.666667 0 0 1-42.602666-40.106667L170.666667 213.333333h682.666666z m-67.904 64H238.592l35.776 597.333334h475.626667l35.434666-597.333334z" fill="#6F7B91" p-id="2899"></path><path d="M427.690667 377.344a32 32 0 0 1 31.850666 28.906667l0.149334 3.093333v298.666667a32 32 0 0 1-63.850667 3.072l-0.149333-3.072v-298.666667a32 32 0 0 1 32-32zM597.546667 377.344a32 32 0 0 1 31.872 28.906667l0.149333 3.093333v298.666667a32 32 0 0 1-63.850667 3.072l-0.149333-3.072v-298.666667a32 32 0 0 1 32-32zM917.333333 214.037333a32 32 0 0 1 3.072 63.850667l-3.072 0.149333H106.666667a32 32 0 0 1-3.072-63.872L106.666667 214.037333h810.666666z" fill="#6F7B91" p-id="2900"></path></svg>