<?xml version="1.0" standalone="no"?><!DOCTYPE svg PUBLIC "-//W3C//DTD SVG 1.1//EN" "http://www.w3.org/Graphics/SVG/1.1/DTD/svg11.dtd"><svg t="1662788607508" class="icon" viewBox="0 0 1024 1024" version="1.1" xmlns="http://www.w3.org/2000/svg" p-id="3034" xmlns:xlink="http://www.w3.org/1999/xlink" width="200" height="200"><path d="M623.253333 94.144l2.901334 1.941333 128.981333 93.696a42.666667 42.666667 0 0 1 11.392 56.682667l-1.984 2.965333-489.237333 671.701334a42.666667 42.666667 0 0 1-34.496 17.536H130.794667a42.666667 42.666667 0 0 1-42.666667-42.666667v-117.866667a42.666667 42.666667 0 0 1 8.149333-25.066666L566.570667 105.536a42.666667 42.666667 0 0 1 56.682666-11.392z m-17.450666 66.261333L152.128 785.045333v89.6h77.824l470.272-645.632-94.421333-68.608z" fill="#6F7B91" p-id="3035"></path><path d="M405.333333 874.666667m32 0l469.333334 0q32 0 32 32l0 0q0 32-32 32l-469.333334 0q-32 0-32-32l0 0q0-32 32-32Z" fill="#6F7B91" p-id="3036"></path><path d="M468.736 301.802667l36.693333-52.437334 139.818667 97.898667-36.693333 52.416z" fill="#6F7B91" p-id="3037"></path></svg>